<svg width="350" height="30" viewBox="0 0 770 60" fill="none" xmlns="http://www.w3.org/2000/svg" xmlns:xlink="http://www.w3.org/1999/xlink">
<path d="M186,17.5C186,16.837 186.263,16.201 186.732,15.732C187.201,15.263 187.837,15 188.5,15C189.163,15 189.799,15.263 190.268,15.732C190.737,16.201 191,16.837 191,17.5C191,18.163 190.737,18.799 190.268,19.268C189.799,19.737 189.163,20 188.5,20C187.837,20 187.201,19.737 186.732,19.268C186.263,18.799 186,18.163 186,17.5Z" fill="#000000"/>
<path d="M176,18.125C172.851,18.125 169.83,19.376 167.603,21.603C165.376,23.83 164.125,26.851 164.125,30C164.125,33.149 165.376,36.17 167.603,38.397C169.83,40.624 172.851,41.875 176,41.875C179.149,41.875 182.17,40.624 184.397,38.397C186.624,36.17 187.875,33.149 187.875,30C187.875,26.851 186.624,23.83 184.397,21.603C182.17,19.376 179.149,18.125 176,18.125ZM167.875,30C167.875,27.845 168.731,25.779 170.255,24.255C171.779,22.731 173.845,21.875 176,21.875C178.155,21.875 180.221,22.731 181.745,24.255C183.269,25.779 184.125,27.845 184.125,30C184.125,32.155 183.269,34.221 181.745,35.745C180.221,37.269 178.155,38.125 176,38.125C173.845,38.125 171.779,37.269 170.255,35.745C168.731,34.221 167.875,32.155 167.875,30Z" clip-rule="evenodd" fill-rule="evenodd" fill="#000000"/>
<path d="M338.154,2.71L338.154,0C337.583,0 337.035,0.285 336.631,0.794C336.227,1.302 336,1.991 336,2.71L338.154,2.71ZM389.846,2.71L392,2.71C392,1.991 391.773,1.302 391.369,0.794C390.965,0.285 390.417,0 389.846,0L389.846,2.71ZM338.154,5.419L389.846,5.419L389.846,0L338.154,0L338.154,5.419ZM387.692,2.71L387.692,46.065L392,46.065L392,2.71L387.692,2.71ZM384.103,50.581L343.897,50.581L343.897,56L384.103,56L384.103,50.581ZM340.308,46.065L340.308,2.71L336,2.71L336,46.065L340.308,46.065ZM343.897,50.581C341.916,50.581 340.308,48.557 340.308,46.065L336,46.065C336,48.7 336.832,51.227 338.313,53.09C339.794,54.953 341.803,56 343.897,56L343.897,50.581ZM387.692,46.065C387.692,48.557 386.084,50.581 384.103,50.581L384.103,56C386.197,56 388.206,54.953 389.687,53.09C391.168,51.227 392,48.7 392,46.065L387.692,46.065Z" fill="#000000"/>
<path d="M339.329,1.776C338.813,1.128 337.869,1.02 337.221,1.535C336.572,2.051 336.465,2.995 336.98,3.643L339.329,1.776ZM364,35.226L362.826,36.159C363.111,36.517 363.543,36.726 364,36.726C364.458,36.726 364.89,36.517 365.175,36.159L364,35.226ZM391.021,3.643C391.536,2.995 391.428,2.051 390.78,1.535C390.131,1.02 389.188,1.128 388.672,1.776L391.021,3.643ZM336.98,3.643L362.826,36.159L365.175,34.292L339.329,1.776L336.98,3.643ZM365.175,36.159L391.021,3.643L388.672,1.776L362.826,34.292L365.175,36.159Z" fill="#000000"/>
<path d="M533.555,8.357C534.825,8.14 536.247,8.067 537.587,8.295C539.974,8.698 542.186,9.807 543.937,11.477C545.077,11.502 546.2,11.277 547.192,10.957C548.152,10.645 549.073,10.224 549.937,9.705L549.96,9.69C550.32,9.45 550.752,9.342 551.182,9.384C551.613,9.426 552.016,9.616 552.322,9.921C552.629,10.226 552.821,10.628 552.865,11.059C552.909,11.489 552.803,11.921 552.565,12.282C552.047,13.07 551.325,14.475 550.517,16.05L550.13,16.802C549.667,17.702 549.192,18.612 548.75,19.392C548.472,19.882 548.175,20.38 547.875,20.81L547.875,21.495C547.906,25.592 547.12,29.653 545.564,33.443C544.008,37.233 541.713,40.675 538.813,43.568C535.913,46.461 532.465,48.748 528.671,50.294C524.878,51.841 520.814,52.616 516.718,52.575C510.781,52.58 504.97,50.87 499.983,47.65C499.625,47.42 499.356,47.075 499.22,46.672C499.083,46.269 499.089,45.832 499.234,45.432C499.379,45.032 499.656,44.693 500.02,44.472C500.383,44.25 500.811,44.159 501.233,44.212C504.677,44.624 508.169,44.068 511.315,42.607C509.78,41.91 508.407,40.9 507.284,39.642C506.16,38.384 505.311,36.906 504.79,35.303C504.691,34.995 504.673,34.668 504.737,34.352C504.801,34.036 504.946,33.741 505.158,33.497L505.183,33.472C503.914,32.342 502.897,30.958 502.198,29.409C501.499,27.86 501.133,26.182 501.125,24.482L501.125,24.352C501.125,23.941 501.26,23.541 501.51,23.214C501.76,22.886 502.11,22.651 502.508,22.542C501.661,20.853 501.222,18.989 501.225,17.1C501.224,14.958 501.784,12.853 502.85,10.995C503.002,10.731 503.215,10.508 503.472,10.345C503.729,10.182 504.021,10.085 504.324,10.06C504.627,10.035 504.932,10.085 505.212,10.204C505.492,10.323 505.738,10.509 505.93,10.745C510.303,16.132 516.568,19.647 523.445,20.57C523.385,18.32 523.953,16.099 525.084,14.153C526.215,12.208 527.865,10.616 529.85,9.555C530.855,9.02 532.185,8.592 533.555,8.357ZM505.355,27.227C505.841,28.594 506.672,29.811 507.769,30.759C508.866,31.707 510.19,32.355 511.613,32.637C512.022,32.719 512.393,32.935 512.666,33.252C512.939,33.568 513.098,33.966 513.119,34.384C513.14,34.801 513.02,35.213 512.78,35.555C512.54,35.897 512.192,36.148 511.793,36.27C511.113,36.477 510.415,36.62 509.708,36.702C510.476,37.693 511.456,38.5 512.576,39.062C513.697,39.624 514.929,39.929 516.183,39.952C516.569,39.96 516.944,40.086 517.256,40.315C517.568,40.544 517.801,40.863 517.925,41.23C518.048,41.596 518.055,41.992 517.944,42.363C517.834,42.733 517.611,43.061 517.308,43.3C514.701,45.351 511.671,46.798 508.438,47.537C511.115,48.394 513.909,48.829 516.72,48.825L516.743,48.825C520.343,48.863 523.915,48.184 527.249,46.826C530.584,45.468 533.614,43.459 536.164,40.917C538.713,38.374 540.73,35.349 542.097,32.019C543.464,28.688 544.153,25.118 544.125,21.517L544.125,20.18C544.125,19.725 544.29,19.285 544.59,18.942C544.765,18.745 545.065,18.29 545.49,17.542C545.89,16.837 546.335,15.987 546.797,15.09L546.88,14.925C545.574,15.219 544.229,15.301 542.897,15.167C542.447,15.118 542.03,14.908 541.722,14.575C540.465,13.212 538.791,12.304 536.962,11.995C536.04,11.865 535.103,11.886 534.187,12.057C533.295,12.196 532.429,12.469 531.617,12.865C529.982,13.739 528.682,15.131 527.923,16.823C527.164,18.516 526.988,20.412 527.422,22.215C527.491,22.498 527.492,22.794 527.426,23.078C527.361,23.362 527.229,23.627 527.043,23.852C526.857,24.076 526.621,24.254 526.354,24.372C526.087,24.489 525.796,24.542 525.505,24.527C517.824,24.139 510.562,20.907 505.133,15.46C505.027,16.001 504.974,16.551 504.975,17.102L504.975,17.107C504.972,18.484 505.31,19.841 505.958,21.055C506.606,22.27 507.545,23.306 508.69,24.07C509.026,24.296 509.28,24.626 509.414,25.008C509.547,25.391 509.553,25.807 509.43,26.193C509.307,26.58 509.063,26.916 508.733,27.151C508.403,27.387 508.005,27.509 507.6,27.5C506.846,27.479 506.095,27.387 505.358,27.225Z" clip-rule="evenodd" fill-rule="evenodd" fill="#000000"/>
<path d="M14.5,22.5L25.75,22.5L24.5,27.5L14.5,27.5L14.5,50L9.5,50L9.5,27.5L-0.5,27.5L-0.5,22.5L9.5,22.5L9.5,17.82C9.5,13.362 9.965,11.745 10.835,10.115C11.688,8.505 13.005,7.188 14.615,6.335C16.245,5.465 17.862,5 22.32,5C23.625,5 24.77,5.125 25.75,5.375L25.75,10L22.32,10C19.01,10 18.003,10.195 16.972,10.745C16.233,11.131 15.63,11.735 15.245,12.475C14.695,13.503 14.5,14.51 14.5,17.82L14.5,22.5Z" fill="#000000"/>
<path d="M741.393,28.057C741.7,27.288 741.326,26.415 740.557,26.107C739.788,25.8 738.915,26.174 738.607,26.943L741.393,28.057ZM728.607,51.943C728.3,52.712 728.674,53.585 729.443,53.893C730.212,54.2 731.085,53.826 731.393,53.057L728.607,51.943ZM735.543,40.059C734.786,39.723 733.899,40.065 733.564,40.822C733.228,41.579 733.57,42.465 734.327,42.801L735.543,40.059ZM727.876,37C728.29,37.717 729.207,37.963 729.925,37.549C730.642,37.135 730.888,36.218 730.474,35.5L727.876,37ZM738.607,26.943L728.607,51.943L731.393,53.057L741.393,28.057L738.607,26.943ZM734.327,42.801C737.373,44.152 740.801,44.372 743.995,43.421L743.14,40.546C740.63,41.293 737.936,41.12 735.543,40.059L734.327,42.801ZM743.995,43.421C747.189,42.471 749.939,40.412 751.751,37.616L749.234,35.984C747.81,38.182 745.649,39.799 743.14,40.546L743.995,43.421ZM751.751,37.616C753.563,34.819 754.318,31.468 753.881,28.164L750.907,28.558C751.251,31.154 750.657,33.787 749.234,35.984L751.751,37.616ZM753.881,28.164C753.443,24.861 751.841,21.822 749.364,19.593L747.357,21.824C749.304,23.575 750.563,25.963 750.907,28.558L753.881,28.164ZM749.364,19.593C746.886,17.365 743.694,16.094 740.363,16.008L740.286,19.007C742.903,19.074 745.411,20.073 747.357,21.824L749.364,19.593ZM740.363,16.008C737.032,15.922 733.779,17.027 731.19,19.124L733.078,21.456C735.113,19.807 737.668,18.939 740.286,19.007L740.363,16.008ZM731.19,19.124C728.6,21.222 726.844,24.174 726.237,27.451L729.186,27.998C729.664,25.423 731.044,23.104 733.078,21.456L731.19,19.124ZM726.237,27.451C725.629,30.727 726.21,34.113 727.876,37L730.474,35.5C729.166,33.232 728.709,30.572 729.186,27.998L726.237,27.451Z" fill="#000000"/>
<path d="M763.5,30C763.5,42.979 752.979,53.5 740,53.5L740,56.5C754.636,56.5 766.5,44.636 766.5,30L763.5,30ZM740,53.5C727.021,53.5 716.5,42.979 716.5,30L713.5,30C713.5,44.636 725.364,56.5 740,56.5L740,53.5ZM716.5,30C716.5,17.021 727.021,6.5 740,6.5L740,3.5C725.364,3.5 713.5,15.364 713.5,30L716.5,30ZM740,6.5C752.979,6.5 763.5,17.021 763.5,30L766.5,30C766.5,15.364 754.636,3.5 740,3.5L740,6.5Z" fill="#000000"/>
<path d="M189.144,7.083C180.408,6.114 171.591,6.114 162.854,7.083C157.824,7.645 153.762,11.608 153.172,16.663C152.135,25.524 152.135,34.476 153.172,43.338C153.762,48.393 157.822,52.355 162.854,52.918C171.591,53.885 180.408,53.885 189.144,52.918C194.174,52.355 198.237,48.393 198.827,43.338C199.864,34.476 199.864,25.524 198.827,16.663C198.237,11.608 194.177,7.645 189.144,7.083ZM163.269,10.808C171.73,9.87 180.269,9.87 188.729,10.808C192.054,11.183 194.717,13.805 195.104,17.1C196.107,25.671 196.107,34.329 195.104,42.9C194.904,44.513 194.166,46.011 193.009,47.152C191.852,48.293 190.345,49.011 188.729,49.19C180.269,50.128 171.73,50.128 163.269,49.19C161.654,49.011 160.147,48.293 158.99,47.152C157.833,46.011 157.095,44.513 156.894,42.9C155.892,34.329 155.892,25.671 156.894,17.1C157.095,15.487 157.833,13.989 158.99,12.848C160.147,11.707 161.654,10.986 163.269,10.808Z" clip-rule="evenodd" fill-rule="evenodd" fill="#000000"/>
</svg>
