<svg width="3056" height="522" viewBox="0 0 3056 522" fill="none" xmlns="http://www.w3.org/2000/svg" xmlns:xlink="http://www.w3.org/1999/xlink">
<path d="M1518.752,137.832C1519.211,138.521 1520.143,138.708 1520.832,138.248C1521.521,137.789 1521.707,136.857 1521.248,136.168L1518.752,137.832ZM1528.479,132.247C1528.616,131.429 1528.064,130.657 1527.246,130.52C1526.429,130.384 1525.656,130.936 1525.52,131.753L1528.479,132.247ZM1529.451,128.379C1529.66,127.577 1529.18,126.758 1528.379,126.549C1527.577,126.339 1526.758,126.82 1526.548,127.621L1529.451,128.379ZM1520.548,150.621C1520.339,151.423 1520.82,152.242 1521.621,152.451C1522.423,152.661 1523.242,152.18 1523.451,151.379L1520.548,150.621ZM1521.248,136.168C1519.898,134.143 1519.448,132.329 1519.519,130.772C1519.59,129.207 1520.194,127.78 1521.155,126.547C1523.122,124.022 1526.443,122.5 1529,122.5L1529,119.5C1525.481,119.5 1521.301,121.478 1518.788,124.703C1517.509,126.345 1516.626,128.355 1516.522,130.635C1516.418,132.921 1517.102,135.357 1518.752,137.832L1521.248,136.168ZM1529,122.5C1531.782,122.5 1534.135,123.257 1535.776,124.731C1537.389,126.181 1538.5,128.491 1538.5,132L1541.5,132C1541.5,127.817 1540.149,124.627 1537.781,122.5C1535.441,120.397 1532.294,119.5 1529,119.5L1529,122.5ZM1538.5,132C1538.5,137.465 1534.97,140.5 1532,140.5L1532,143.5C1537.03,143.5 1541.5,138.687 1541.5,132L1538.5,132ZM1532,140.5C1530.602,140.5 1529.603,139.852 1528.967,138.579C1528.284,137.215 1528.009,135.069 1528.479,132.247L1525.52,131.753C1524.991,134.931 1525.215,137.785 1526.283,139.921C1527.397,142.148 1529.398,143.5 1532,143.5L1532,140.5ZM1526.548,127.621L1520.548,150.621L1523.451,151.379L1529.451,128.379L1526.548,127.621Z" fill="#000000"/>
<path d="M1528,153.5C1539.874,153.5 1549.5,143.874 1549.5,132L1546.5,132C1546.5,142.218 1538.218,150.5 1528,150.5L1528,153.5ZM1549.5,132C1549.5,120.126 1539.874,110.5 1528,110.5L1528,113.5C1538.218,113.5 1546.5,121.782 1546.5,132L1549.5,132ZM1528,110.5C1516.126,110.5 1506.5,120.126 1506.5,132L1509.5,132C1509.5,121.782 1517.782,113.5 1528,113.5L1528,110.5ZM1506.5,132C1506.5,143.874 1516.126,153.5 1528,153.5L1528,150.5C1517.782,150.5 1509.5,142.218 1509.5,132L1506.5,132Z" fill="#000000"/>
<path d="M1543.826,118.644C1544.203,118.647 1544.573,118.753 1544.894,118.951C1545.215,119.149 1545.476,119.431 1545.648,119.767C1545.821,120.102 1545.898,120.479 1545.872,120.855C1545.846,121.231 1545.717,121.593 1545.5,121.902L1543.416,124.864C1543.288,135.036 1539.886,141.942 1533.304,145.392C1530.168,146.952 1526.702,147.733 1523.2,147.67C1518.87,147.77 1514.591,146.718 1510.8,144.622C1510.545,144.451 1510.348,144.206 1510.235,143.92C1510.122,143.635 1510.098,143.322 1510.166,143.022C1510.231,142.718 1510.386,142.441 1510.61,142.227C1510.835,142.013 1511.12,141.872 1511.426,141.822C1513.973,141.466 1516.48,140.873 1518.916,140.05C1508,135 1510.38,123.648 1511.42,120.162C1511.521,119.816 1511.712,119.503 1511.973,119.253C1512.234,119.004 1512.555,118.828 1512.906,118.743C1513.256,118.657 1513.623,118.665 1513.969,118.766C1514.315,118.867 1514.629,119.058 1514.878,119.318C1518.073,122.611 1522.31,124.695 1526.868,125.218C1526.787,123.993 1526.977,122.765 1527.423,121.622C1527.869,120.478 1528.561,119.447 1529.45,118.6C1530.99,117.138 1533.035,116.327 1535.158,116.334C1537.282,116.342 1539.32,117.168 1540.85,118.64L1543.826,118.644ZM1513.042,143.588C1516.766,145.332 1525.494,147.226 1532.376,143.62C1538.286,140.522 1541.328,134.156 1541.418,124.698C1541.422,124.385 1541.521,124.081 1541.702,123.826L1543.864,120.75L1543.782,120.644C1542.746,120.63 1541.724,120.616 1540.682,120.644C1540.276,120.634 1539.887,120.477 1539.588,120.202C1538.437,119.035 1536.874,118.366 1535.235,118.339C1533.595,118.312 1532.011,118.929 1530.822,120.058C1530.058,120.784 1529.487,121.689 1529.16,122.691C1528.834,123.693 1528.762,124.761 1528.952,125.798C1528.986,125.991 1528.976,126.19 1528.923,126.378C1528.87,126.567 1528.774,126.741 1528.644,126.888C1528.519,127.036 1528.359,127.151 1528.179,127.222C1527.999,127.294 1527.805,127.32 1527.612,127.298C1522.238,126.924 1517.192,124.577 1513.444,120.708C1512.104,124.864 1510.404,134.896 1521.182,138.838C1521.409,138.919 1521.608,139.063 1521.756,139.254C1521.903,139.445 1521.993,139.674 1522.014,139.914C1522.037,140.15 1521.993,140.388 1521.887,140.601C1521.781,140.813 1521.617,140.991 1521.414,141.114C1518.78,142.398 1515.951,143.234 1513.042,143.588Z" fill="#000000"/>
<path d="M1530,126L1539,126L1538,130L1530,130L1530,148L1526,148L1526,130L1518,130L1518,126L1526,126L1526,122.256C1526,118.69 1526.372,117.396 1527.068,116.092C1527.75,114.804 1528.804,113.75 1530.092,113.068C1531.396,112.372 1532.69,112 1536.256,112C1537.3,112 1538.216,112.1 1539,112.3L1539,116L1536.256,116C1533.608,116 1532.802,116.156 1531.978,116.596C1531.387,116.905 1530.904,117.388 1530.596,117.98C1530.156,118.802 1530,119.608 1530,122.256L1530,126Z" fill="#000000"/>
<rect  x="0" y="0" width="3056" height="522" fill="#DAD0E3"/>
<path d="M1246,73.5C1246,72.837 1246.263,72.201 1246.732,71.732C1247.201,71.263 1247.837,71 1248.5,71C1249.163,71 1249.799,71.263 1250.268,71.732C1250.737,72.201 1251,72.837 1251,73.5C1251,74.163 1250.737,74.799 1250.268,75.268C1249.799,75.737 1249.163,76 1248.5,76C1247.837,76 1247.201,75.737 1246.732,75.268C1246.263,74.799 1246,74.163 1246,73.5Z" fill="#000000"/>
<path d="M1236,74.125C1232.851,74.125 1229.83,75.376 1227.603,77.603C1225.376,79.83 1224.125,82.851 1224.125,86C1224.125,89.149 1225.376,92.17 1227.603,94.397C1229.83,96.624 1232.851,97.875 1236,97.875C1239.149,97.875 1242.17,96.624 1244.397,94.397C1246.624,92.17 1247.875,89.149 1247.875,86C1247.875,82.851 1246.624,79.83 1244.397,77.603C1242.17,75.376 1239.149,74.125 1236,74.125ZM1227.875,86C1227.875,83.845 1228.731,81.779 1230.255,80.255C1231.779,78.731 1233.845,77.875 1236,77.875C1238.155,77.875 1240.222,78.731 1241.745,80.255C1243.269,81.779 1244.125,83.845 1244.125,86C1244.125,88.155 1243.269,90.221 1241.745,91.745C1240.222,93.269 1238.155,94.125 1236,94.125C1233.845,94.125 1231.779,93.269 1230.255,91.745C1228.731,90.221 1227.875,88.155 1227.875,86Z" clip-rule="evenodd" fill-rule="evenodd" fill="#000000"/>
<path d="M1249.145,63.083C1240.408,62.114 1231.591,62.114 1222.855,63.083C1217.825,63.645 1213.762,67.608 1213.172,72.663C1212.136,81.524 1212.136,90.476 1213.172,99.338C1213.762,104.393 1217.822,108.355 1222.855,108.918C1231.592,109.885 1240.408,109.885 1249.145,108.918C1254.175,108.355 1258.237,104.393 1258.827,99.338C1259.864,90.476 1259.864,81.524 1258.827,72.663C1258.237,67.608 1254.177,63.645 1249.145,63.083ZM1223.27,66.808C1231.731,65.87 1240.269,65.87 1248.73,66.808C1252.055,67.183 1254.717,69.805 1255.105,73.1C1256.107,81.671 1256.107,90.329 1255.105,98.9C1254.904,100.513 1254.166,102.011 1253.009,103.152C1251.853,104.293 1250.345,105.011 1248.73,105.19C1240.269,106.128 1231.731,106.128 1223.27,105.19C1221.655,105.011 1220.147,104.293 1218.99,103.152C1217.834,102.011 1217.095,100.513 1216.895,98.9C1215.893,90.329 1215.893,81.671 1216.895,73.1C1217.095,71.487 1217.834,69.989 1218.99,68.848C1220.147,67.707 1221.655,66.986 1223.27,66.808Z" clip-rule="evenodd" fill-rule="evenodd" fill="#000000"/>
<path d="M1398.154,58.71L1398.154,56C1397.583,56 1397.035,56.285 1396.631,56.794C1396.227,57.302 1396,57.991 1396,58.71L1398.154,58.71ZM1449.846,58.71L1452,58.71C1452,57.991 1451.773,57.302 1451.369,56.794C1450.965,56.285 1450.417,56 1449.846,56L1449.846,58.71ZM1398.154,61.419L1449.846,61.419L1449.846,56L1398.154,56L1398.154,61.419ZM1447.692,58.71L1447.692,102.065L1452,102.065L1452,58.71L1447.692,58.71ZM1444.103,106.581L1403.897,106.581L1403.897,112L1444.103,112L1444.103,106.581ZM1400.308,102.065L1400.308,58.71L1396,58.71L1396,102.065L1400.308,102.065ZM1403.897,106.581C1401.916,106.581 1400.308,104.557 1400.308,102.065L1396,102.065C1396,104.7 1396.832,107.227 1398.313,109.09C1399.794,110.953 1401.803,112 1403.897,112L1403.897,106.581ZM1447.692,102.065C1447.692,104.557 1446.084,106.581 1444.103,106.581L1444.103,112C1446.197,112 1448.206,110.953 1449.687,109.09C1451.168,107.227 1452,104.7 1452,102.065L1447.692,102.065Z" fill="#000000"/>
<path d="M1399.328,57.776C1398.813,57.128 1397.869,57.02 1397.22,57.535C1396.572,58.051 1396.464,58.995 1396.98,59.643L1399.328,57.776ZM1424,91.226L1422.826,92.159C1423.11,92.517 1423.543,92.726 1424,92.726C1424.457,92.726 1424.89,92.517 1425.174,92.159L1424,91.226ZM1451.02,59.643C1451.536,58.995 1451.428,58.051 1450.779,57.535C1450.131,57.02 1449.187,57.128 1448.672,57.776L1451.02,59.643ZM1396.98,59.643L1422.826,92.159L1425.174,90.292L1399.328,57.776L1396.98,59.643ZM1425.174,92.159L1451.02,59.643L1448.672,57.776L1422.826,90.292L1425.174,92.159Z" fill="#000000"/>
<path d="M1593.555,64.357C1594.825,64.14 1596.247,64.067 1597.587,64.295C1599.974,64.698 1602.186,65.807 1603.937,67.477C1605.077,67.502 1606.2,67.277 1607.192,66.957C1608.152,66.645 1609.073,66.224 1609.937,65.705L1609.96,65.69C1610.32,65.45 1610.752,65.342 1611.182,65.384C1611.613,65.426 1612.016,65.616 1612.322,65.921C1612.629,66.226 1612.821,66.628 1612.865,67.059C1612.909,67.489 1612.803,67.921 1612.565,68.282C1612.047,69.07 1611.325,70.475 1610.517,72.05L1610.13,72.802C1609.667,73.702 1609.192,74.612 1608.75,75.392C1608.472,75.882 1608.175,76.38 1607.875,76.81L1607.875,77.495C1607.906,81.592 1607.12,85.653 1605.564,89.443C1604.008,93.233 1601.713,96.675 1598.813,99.568C1595.913,102.461 1592.465,104.748 1588.671,106.294C1584.878,107.841 1580.814,108.616 1576.718,108.575C1570.781,108.58 1564.97,106.87 1559.983,103.65C1559.625,103.42 1559.356,103.075 1559.22,102.672C1559.083,102.269 1559.089,101.832 1559.234,101.432C1559.379,101.032 1559.656,100.693 1560.02,100.472C1560.383,100.25 1560.811,100.159 1561.233,100.212C1564.677,100.624 1568.169,100.068 1571.315,98.607C1569.78,97.91 1568.407,96.9 1567.284,95.642C1566.16,94.384 1565.311,92.906 1564.79,91.303C1564.691,90.995 1564.673,90.668 1564.737,90.352C1564.801,90.036 1564.946,89.741 1565.158,89.497L1565.183,89.472C1563.914,88.342 1562.897,86.958 1562.198,85.409C1561.499,83.86 1561.133,82.182 1561.125,80.482L1561.125,80.352C1561.125,79.941 1561.26,79.541 1561.51,79.214C1561.76,78.886 1562.11,78.651 1562.508,78.542C1561.661,76.853 1561.222,74.989 1561.225,73.1C1561.224,70.958 1561.784,68.853 1562.85,66.995C1563.002,66.731 1563.215,66.508 1563.472,66.345C1563.729,66.182 1564.021,66.085 1564.324,66.06C1564.627,66.035 1564.932,66.085 1565.212,66.204C1565.492,66.323 1565.738,66.509 1565.93,66.745C1570.303,72.132 1576.568,75.647 1583.445,76.57C1583.385,74.32 1583.953,72.099 1585.084,70.153C1586.215,68.208 1587.865,66.616 1589.85,65.555C1590.855,65.02 1592.185,64.592 1593.555,64.357ZM1565.355,83.227C1565.841,84.594 1566.672,85.811 1567.769,86.759C1568.866,87.707 1570.19,88.355 1571.613,88.637C1572.022,88.719 1572.393,88.935 1572.666,89.252C1572.939,89.568 1573.098,89.966 1573.119,90.384C1573.14,90.801 1573.02,91.213 1572.78,91.555C1572.54,91.897 1572.192,92.148 1571.793,92.27C1571.113,92.477 1570.415,92.62 1569.708,92.702C1570.476,93.693 1571.456,94.5 1572.576,95.062C1573.697,95.624 1574.929,95.929 1576.183,95.952C1576.569,95.96 1576.944,96.086 1577.256,96.315C1577.568,96.544 1577.801,96.863 1577.925,97.23C1578.048,97.596 1578.055,97.992 1577.944,98.363C1577.834,98.733 1577.611,99.061 1577.308,99.3C1574.701,101.351 1571.671,102.798 1568.438,103.537C1571.115,104.394 1573.909,104.829 1576.72,104.825L1576.743,104.825C1580.343,104.863 1583.915,104.184 1587.249,102.826C1590.584,101.468 1593.614,99.459 1596.164,96.917C1598.713,94.374 1600.73,91.349 1602.097,88.019C1603.464,84.688 1604.153,81.118 1604.125,77.517L1604.125,76.18C1604.125,75.725 1604.29,75.285 1604.59,74.942C1604.765,74.745 1605.065,74.29 1605.49,73.542C1605.89,72.837 1606.335,71.987 1606.797,71.09L1606.88,70.925C1605.574,71.219 1604.229,71.301 1602.897,71.167C1602.447,71.118 1602.03,70.908 1601.722,70.575C1600.465,69.212 1598.791,68.304 1596.962,67.995C1596.04,67.865 1595.103,67.886 1594.187,68.057C1593.295,68.196 1592.429,68.469 1591.617,68.865C1589.982,69.739 1588.682,71.131 1587.923,72.823C1587.164,74.516 1586.988,76.412 1587.422,78.215C1587.491,78.498 1587.492,78.794 1587.426,79.078C1587.361,79.362 1587.229,79.627 1587.043,79.852C1586.857,80.076 1586.621,80.254 1586.354,80.372C1586.087,80.489 1585.796,80.542 1585.505,80.527C1577.824,80.139 1570.562,76.907 1565.133,71.46C1565.027,72.001 1564.974,72.551 1564.975,73.102L1564.975,73.107C1564.972,74.484 1565.31,75.841 1565.958,77.055C1566.606,78.27 1567.545,79.306 1568.69,80.07C1569.026,80.296 1569.28,80.626 1569.414,81.008C1569.547,81.391 1569.553,81.807 1569.43,82.193C1569.307,82.58 1569.063,82.916 1568.733,83.151C1568.403,83.387 1568.005,83.509 1567.6,83.5C1566.846,83.479 1566.095,83.387 1565.358,83.225Z" clip-rule="evenodd" fill-rule="evenodd" fill="#000000"/>
<path d="M1074.5,78.5L1085.75,78.5L1084.5,83.5L1074.5,83.5L1074.5,106L1069.5,106L1069.5,83.5L1059.5,83.5L1059.5,78.5L1069.5,78.5L1069.5,73.82C1069.5,69.362 1069.965,67.745 1070.835,66.115C1071.688,64.505 1073.005,63.188 1074.615,62.335C1076.245,61.465 1077.863,61 1082.32,61C1083.625,61 1084.77,61.125 1085.75,61.375L1085.75,66L1082.32,66C1079.01,66 1078.003,66.195 1076.972,66.745C1076.233,67.131 1075.63,67.735 1075.245,68.475C1074.695,69.503 1074.5,70.51 1074.5,73.82L1074.5,78.5Z" fill="#000000"/>
<path d="M1801.393,84.057C1801.7,83.288 1801.326,82.415 1800.557,82.107C1799.788,81.8 1798.915,82.174 1798.607,82.943L1801.393,84.057ZM1788.607,107.943C1788.3,108.712 1788.674,109.585 1789.443,109.893C1790.212,110.2 1791.085,109.826 1791.393,109.057L1788.607,107.943ZM1795.543,96.059C1794.786,95.723 1793.899,96.065 1793.564,96.822C1793.228,97.579 1793.57,98.465 1794.327,98.801L1795.543,96.059ZM1787.876,93C1788.29,93.717 1789.207,93.963 1789.925,93.549C1790.642,93.135 1790.888,92.218 1790.474,91.5L1787.876,93ZM1798.607,82.943L1788.607,107.943L1791.393,109.057L1801.393,84.057L1798.607,82.943ZM1794.327,98.801C1797.373,100.152 1800.801,100.372 1803.995,99.421L1803.14,96.546C1800.63,97.293 1797.936,97.12 1795.543,96.059L1794.327,98.801ZM1803.995,99.421C1807.189,98.471 1809.939,96.412 1811.751,93.616L1809.234,91.984C1807.81,94.182 1805.649,95.799 1803.14,96.546L1803.995,99.421ZM1811.751,93.616C1813.563,90.819 1814.318,87.468 1813.881,84.164L1810.907,84.558C1811.251,87.154 1810.657,89.787 1809.234,91.984L1811.751,93.616ZM1813.881,84.164C1813.443,80.861 1811.841,77.822 1809.364,75.593L1807.357,77.824C1809.304,79.575 1810.563,81.963 1810.907,84.558L1813.881,84.164ZM1809.364,75.593C1806.886,73.365 1803.694,72.094 1800.363,72.008L1800.286,75.007C1802.903,75.074 1805.411,76.073 1807.357,77.824L1809.364,75.593ZM1800.363,72.008C1797.032,71.922 1793.779,73.027 1791.19,75.124L1793.078,77.456C1795.113,75.807 1797.668,74.939 1800.286,75.007L1800.363,72.008ZM1791.19,75.124C1788.6,77.222 1786.844,80.174 1786.237,83.451L1789.186,83.998C1789.664,81.423 1791.044,79.104 1793.078,77.456L1791.19,75.124ZM1786.237,83.451C1785.629,86.727 1786.21,90.113 1787.876,93L1790.474,91.5C1789.166,89.232 1788.709,86.572 1789.186,83.998L1786.237,83.451Z" fill="#000000"/>
<path d="M1823.5,86C1823.5,98.979 1812.979,109.5 1800,109.5L1800,112.5C1814.636,112.5 1826.5,100.636 1826.5,86L1823.5,86ZM1800,109.5C1787.021,109.5 1776.5,98.979 1776.5,86L1773.5,86C1773.5,100.636 1785.364,112.5 1800,112.5L1800,109.5ZM1776.5,86C1776.5,73.021 1787.021,62.5 1800,62.5L1800,59.5C1785.364,59.5 1773.5,71.364 1773.5,86L1776.5,86ZM1800,62.5C1812.979,62.5 1823.5,73.021 1823.5,86L1826.5,86C1826.5,71.364 1814.636,59.5 1800,59.5L1800,62.5Z" fill="#000000"/>
</svg>
