<svg width="906" height="852" viewBox="0 0 906 852" fill="none" xmlns="http://www.w3.org/2000/svg" xmlns:xlink="http://www.w3.org/1999/xlink">
<path d="M8,637C8,634.791 6.209,633 4,633C1.791,633 0,634.791 0,637L8,637ZM4,848L0,848C0,850.21 1.791,852 4,852L4,848ZM228.5,852C230.71,852 232.5,850.21 232.5,848C232.5,845.79 230.71,844 228.5,844L228.5,852ZM0,637L0,848L8,848L8,637L0,637ZM4,852L228.5,852L228.5,844L4,844L4,852Z" fill="#000000"/>
<path d="M677.5,844C675.291,844 673.5,845.79 673.5,848C673.5,850.21 675.291,852 677.5,852L677.5,844ZM902,848L902,852C904.21,852 906,850.21 906,848L902,848ZM906,637C906,634.791 904.21,633 902,633C899.79,633 898,634.791 898,637L906,637ZM677.5,852L902,852L902,844L677.5,844L677.5,852ZM906,848L906,637L898,637L898,848L906,848Z" fill="#000000"/>
<path d="M677.5,0C675.291,0 673.5,1.791 673.5,4C673.5,6.209 675.291,8 677.5,8L677.5,0ZM902,4L906,4C906,1.791 904.21,0 902,0L902,4ZM898,215C898,217.21 899.79,219 902,219C904.21,219 906,217.21 906,215L898,215ZM677.5,8L902,8L902,0L677.5,0L677.5,8ZM898,4L898,215L906,215L906,4L898,4Z" fill="#000000"/>
<path d="M228.5,8C230.71,8 232.5,6.209 232.5,4C232.5,1.791 230.71,0 228.5,0L228.5,8ZM4,4L4,0C1.791,0 0,1.791 0,4L4,4ZM0,215C0,217.21 1.791,219 4,219C6.209,219 8,217.21 8,215L0,215ZM228.5,0L4,0L4,8L228.5,8L228.5,0ZM0,4L0,215L8,215L8,4L0,4Z" fill="#000000"/>
<path d="M276.14,634.085C274.53,632.572 271.999,632.651 270.486,634.261C268.973,635.87 269.051,638.402 270.661,639.915L276.14,634.085ZM635.34,639.915C636.95,638.402 637.028,635.87 635.514,634.261C634.002,632.651 631.47,632.572 629.86,634.085L635.34,639.915ZM273.4,637C270.661,639.915 270.662,639.916 270.664,639.918C270.665,639.919 270.667,639.92 270.669,639.922C270.672,639.925 270.677,639.93 270.683,639.935C270.694,639.946 270.71,639.96 270.729,639.978C270.769,640.015 270.824,640.066 270.896,640.132C271.04,640.264 271.25,640.454 271.524,640.698C272.073,641.187 272.88,641.892 273.941,642.783C276.063,644.565 279.2,647.091 283.308,650.113C291.522,656.155 303.63,664.186 319.282,672.21C350.584,688.257 396.108,704.3 453,704.3L453,696.3C397.642,696.3 353.366,680.693 322.931,665.09C307.714,657.289 295.969,649.495 288.048,643.668C284.088,640.756 281.086,638.337 279.086,636.657C278.086,635.817 277.337,635.162 276.844,634.724C276.598,634.504 276.415,634.339 276.298,634.231C276.239,634.177 276.196,634.138 276.17,634.113C276.157,634.101 276.148,634.093 276.143,634.088C276.14,634.086 276.139,634.084 276.138,634.084C276.138,634.084 276.138,634.084 276.138,634.084C276.139,634.084 276.14,634.085 273.4,637ZM453,704.3C509.892,704.3 555.416,688.257 586.718,672.21C602.37,664.186 614.478,656.155 622.692,650.113C626.8,647.091 629.938,644.565 632.06,642.783C633.12,641.892 633.928,641.187 634.476,640.698C634.75,640.454 634.96,640.264 635.104,640.132C635.176,640.066 635.232,640.015 635.272,639.978C635.29,639.96 635.306,639.946 635.318,639.935C635.324,639.93 635.328,639.925 635.332,639.922C635.334,639.92 635.336,639.919 635.336,639.918C635.338,639.916 635.34,639.915 632.6,637C629.86,634.085 629.862,634.084 629.862,634.084C629.862,634.084 629.862,634.084 629.862,634.084C629.862,634.084 629.86,634.086 629.858,634.088C629.852,634.093 629.844,634.101 629.83,634.113C629.804,634.138 629.762,634.177 629.702,634.231C629.586,634.339 629.402,634.504 629.156,634.724C628.664,635.162 627.914,635.817 626.914,636.657C624.914,638.337 621.912,640.756 617.952,643.668C610.032,649.495 598.286,657.289 583.068,665.09C552.634,680.693 508.358,696.3 453,696.3L453,704.3Z" fill="#000000"/>
<path d="M457,215C457,212.791 455.209,211 453,211C450.791,211 449,212.791 449,215L457,215ZM340.75,485.3C338.541,485.3 336.75,487.09 336.75,489.3C336.75,491.51 338.541,493.3 340.75,493.3L340.75,485.3ZM449,215L449,404.9L457,404.9L457,215L449,215ZM449,404.9C449,424.608 438.468,444.72 422.198,460.01C405.944,475.286 384.434,485.3 363.2,485.3L363.2,493.3C386.866,493.3 410.256,482.214 427.677,465.84C445.082,449.48 457,427.392 457,404.9L449,404.9ZM363.2,485.3L340.75,485.3L340.75,493.3L363.2,493.3L363.2,485.3Z" fill="#000000"/>
<line x1="673.5" y1="215" x2="673.5" y2="257.2" stroke="#000000" stroke-width="4" stroke-miterlimit="3.999327" stroke-linecap="round" stroke-linejoin="round"/>
<line x1="224.5" y1="215" x2="224.5" y2="257.2" stroke="#000000" stroke-width="4" stroke-miterlimit="3.999327" stroke-linecap="round" stroke-linejoin="round"/>
</svg>
