<svg width="50" height="48" viewBox="0 0 50 48" fill="none" xmlns="http://www.w3.org/2000/svg" xmlns:xlink="http://www.w3.org/1999/xlink">
<path d="M15.625,3.52L50,0L50,35.2C50,37.746 49.012,40.188 47.254,41.988C45.496,43.789 43.111,44.8 40.625,44.8C38.139,44.8 35.754,43.789 33.996,41.988C32.238,40.188 31.25,37.746 31.25,35.2C31.25,32.654 32.238,30.212 33.996,28.412C35.754,26.611 38.139,25.6 40.625,25.6C43.031,25.6 45.219,26.528 46.875,28.032L46.875,12.928L18.75,16.128L18.75,38.4C18.75,40.946 17.762,43.388 16.004,45.188C14.246,46.989 11.861,48 9.375,48C6.889,48 4.504,46.989 2.746,45.188C0.988,43.388 0,40.946 0,38.4C0,35.854 0.988,33.412 2.746,31.612C4.504,29.811 6.889,28.8 9.375,28.8C11.781,28.8 13.969,29.728 15.625,31.232L15.625,3.52ZM18.75,6.4L18.75,12.896L46.875,9.728L46.875,3.488L18.75,6.4ZM15.625,38.4C15.625,36.703 14.967,35.075 13.794,33.875C12.622,32.674 11.033,32 9.375,32C7.717,32 6.128,32.674 4.956,33.875C3.783,35.075 3.125,36.703 3.125,38.4C3.125,40.097 3.783,41.725 4.956,42.925C6.128,44.126 7.717,44.8 9.375,44.8C11.033,44.8 12.622,44.126 13.794,42.925C14.967,41.725 15.625,40.097 15.625,38.4ZM46.875,35.2C46.875,33.503 46.217,31.875 45.044,30.675C43.872,29.474 42.283,28.8 40.625,28.8C38.967,28.8 37.378,29.474 36.206,30.675C35.033,31.875 34.375,33.503 34.375,35.2C34.375,36.897 35.033,38.525 36.206,39.725C37.378,40.926 38.967,41.6 40.625,41.6C42.283,41.6 43.872,40.926 45.044,39.725C46.217,38.525 46.875,36.897 46.875,35.2Z" fill="#000000"/>
</svg>
