<svg width="116" height="86" viewBox="0 0 116 86" fill="none" xmlns="http://www.w3.org/2000/svg" xmlns:xlink="http://www.w3.org/1999/xlink">
<path d="M102.625,11.063L85.59,11.063L77.143,0.3C76.936,0.035 76.654,-0.182 76.324,-0.333C75.994,-0.483 75.625,-0.562 75.25,-0.563L38.75,-0.563C38.375,-0.562 38.007,-0.483 37.676,-0.333C37.346,-0.182 37.065,0.035 36.857,0.3L28.399,11.063L11.375,11.063C8.35,11.063 5.449,12.083 3.31,13.9C1.17,15.717 -0.031,18.181 -0.031,20.75L-0.031,75C-0.031,77.569 1.17,80.033 3.31,81.85C5.449,83.667 8.35,84.688 11.375,84.688L102.625,84.688C105.65,84.688 108.551,83.667 110.69,81.85C112.83,80.033 114.031,77.569 114.031,75L114.031,20.75C114.031,18.181 112.83,15.717 110.69,13.9C108.551,12.083 105.65,11.063 102.625,11.063ZM109.469,75C109.469,76.542 108.748,78.02 107.464,79.11C106.181,80.2 104.44,80.813 102.625,80.813L11.375,80.813C9.56,80.813 7.819,80.2 6.536,79.11C5.252,78.02 4.531,76.542 4.531,75L4.531,20.75C4.531,19.208 5.252,17.73 6.536,16.64C7.819,15.55 9.56,14.938 11.375,14.938L29.625,14.938C30.001,14.938 30.371,14.859 30.702,14.709C31.033,14.558 31.316,14.341 31.524,14.075L39.965,3.313L74.024,3.313L82.476,14.075C82.684,14.341 82.967,14.558 83.298,14.709C83.629,14.859 83.999,14.938 84.375,14.938L102.625,14.938C104.44,14.938 106.181,15.55 107.464,16.64C108.748,17.73 109.469,19.208 109.469,20.75L109.469,75ZM57,26.563C52.488,26.563 48.078,27.699 44.326,29.828C40.575,31.957 37.651,34.983 35.924,38.523C34.197,42.063 33.746,45.959 34.626,49.717C35.506,53.476 37.679,56.928 40.869,59.638C44.06,62.347 48.124,64.193 52.55,64.94C56.975,65.688 61.562,65.304 65.73,63.838C69.898,62.371 73.461,59.888 75.968,56.702C78.475,53.515 79.813,49.77 79.813,45.938C79.813,40.799 77.409,35.871 73.131,32.237C68.853,28.604 63.05,26.563 57,26.563ZM57,61.438C53.391,61.438 49.862,60.528 46.861,58.825C43.86,57.122 41.521,54.701 40.139,51.869C38.758,49.037 38.397,45.92 39.101,42.914C39.805,39.907 41.543,37.145 44.095,34.977C46.648,32.81 49.899,31.333 53.44,30.735C56.98,30.137 60.649,30.444 63.984,31.617C67.319,32.791 70.169,34.777 72.174,37.326C74.18,39.875 75.25,42.872 75.25,45.938C75.25,50.048 73.327,53.991 69.905,56.898C66.482,59.804 61.84,61.438 57,61.438Z" fill="#000000"/>
</svg>
