<svg width="32" height="30" viewBox="0 0 32 30" fill="none" xmlns="http://www.w3.org/2000/svg" xmlns:xlink="http://www.w3.org/1999/xlink">
<path d="M10,2.2L32,0L32,22C32,23.591 31.368,25.117 30.243,26.243C29.117,27.368 27.591,28 26,28C24.409,28 22.883,27.368 21.757,26.243C20.632,25.117 20,23.591 20,22C20,20.409 20.632,18.883 21.757,17.757C22.883,16.632 24.409,16 26,16C27.54,16 28.94,16.58 30,17.52L30,8.08L12,10.08L12,24C12,25.591 11.368,27.117 10.243,28.243C9.117,29.368 7.591,30 6,30C4.409,30 2.883,29.368 1.757,28.243C0.632,27.117 0,25.591 0,24C0,22.409 0.632,20.883 1.757,19.757C2.883,18.632 4.409,18 6,18C7.54,18 8.94,18.58 10,19.52L10,2.2ZM12,4L12,8.06L30,6.08L30,2.18L12,4ZM10,24C10,22.939 9.579,21.922 8.828,21.172C8.078,20.421 7.061,20 6,20C4.939,20 3.922,20.421 3.172,21.172C2.421,21.922 2,22.939 2,24C2,25.061 2.421,26.078 3.172,26.828C3.922,27.579 4.939,28 6,28C7.061,28 8.078,27.579 8.828,26.828C9.579,26.078 10,25.061 10,24ZM30,22C30,20.939 29.579,19.922 28.828,19.172C28.078,18.421 27.061,18 26,18C24.939,18 23.922,18.421 23.172,19.172C22.421,19.922 22,20.939 22,22C22,23.061 22.421,24.078 23.172,24.828C23.922,25.579 24.939,26 26,26C27.061,26 28.078,25.579 28.828,24.828C29.579,24.078 30,23.061 30,22Z" fill="#000000"/>
</svg>
